<?xml version="1.0" encoding="utf-8"?>
<!-- Generator: Adobe Illustrator 25.2.3, SVG Export Plug-In . SVG Version: 6.00 Build 0)  -->
<svg version="1.1" id="Capa_1" xmlns="http://www.w3.org/2000/svg" xmlns:xlink="http://www.w3.org/1999/xlink" x="0px" y="0px"
	 viewBox="0 0 1920 1080" style="enable-background:new 0 0 1920 1080;" xml:space="preserve">
<style type="text/css">
	.st0{fill:#22B573;}
	.st1{fill:#1A1A1A;}
</style>
<g>
	<path class="st0" d="M164.06,478.58v50.33c0,13.9,11.27,25.17,25.17,25.17h276.83v54.29c-1.95,25.3-22.61,45.37-48.17,46.38h-222.7
		c-11.1,0-21.64,2.4-31.14,6.7c-7.16,3.24-13.72,7.57-19.48,12.78c-1.89,1.71-3.69,3.51-5.41,5.4
		c-25.26,25.26-50.52,50.52-75.78,75.78V403.08c0-27.8,22.54-50.33,50.33-50.33h302c27.8,0,50.33,22.53,50.33,50.33v50.33H189.23
		C175.33,453.41,164.06,464.68,164.06,478.58z"/>
	<g>
		<g>
			<path class="st1" d="M566.72,601.62V408.58h129.26v32.9h-91.86v49.76h76.42v30.72h-76.42v79.66H566.72z"/>
			<path class="st1" d="M775.11,604.34c-11.56,0-21.91-1.98-31.03-5.91c-9.12-3.94-16.94-9.32-23.44-16.13
				c-6.5-6.81-11.43-14.56-14.77-23.26c-3.35-8.69-5.01-17.88-5.01-27.56c0-10.04,1.67-19.45,5.01-28.23
				c3.34-8.78,8.22-16.53,14.63-23.26c6.41-6.72,14.23-12.01,23.44-15.87c9.21-3.85,19.51-5.78,30.89-5.78
				c11.74,0,22.17,1.93,31.3,5.78c9.12,3.86,16.94,9.15,23.44,15.87c6.5,6.72,11.47,14.47,14.9,23.26
				c3.43,8.79,5.15,18.19,5.15,28.23c0,9.68-1.72,18.87-5.15,27.56c-3.43,8.7-8.4,16.45-14.9,23.26
				c-6.51,6.81-14.32,12.19-23.44,16.13C797.01,602.37,786.67,604.34,775.11,604.34z M737.98,531.47c0,8,1.63,15.21,4.88,21.61
				c3.25,6.4,7.72,11.38,13.41,14.94c5.69,3.56,11.96,5.33,18.83,5.33c6.86,0,13.1-1.82,18.7-5.47c5.6-3.65,10.07-8.62,13.41-14.93
				c3.34-6.31,5.01-13.56,5.01-21.74c0-8-1.67-15.16-5.01-21.47c-3.35-6.31-7.82-11.29-13.41-14.94c-5.6-3.65-11.92-5.47-18.97-5.47
				c-6.87,0-13.1,1.82-18.7,5.47c-5.6,3.65-10.03,8.62-13.28,14.94S737.98,523.29,737.98,531.47z"/>
			<path class="st1" d="M958.56,490.69c-11.2,0.18-21.14,2.31-29.81,6.39c-8.67,4.08-15,10.11-18.97,18.08v86.46h-36.04V460.51
				h33.33v29.09c5.05-9.79,11.52-17.49,19.37-23.11c7.86-5.62,16.12-8.7,24.8-9.24c1.8,0.18,3.25,0.23,4.33,0.14
				c1.09-0.09,2.07,0.05,2.98,0.41V490.69z"/>
			<path class="st1" d="M1042.3,604.34c-11.56,0-21.91-1.98-31.03-5.91c-9.12-3.94-16.94-9.32-23.44-16.13
				c-6.5-6.81-11.43-14.56-14.77-23.26c-3.35-8.69-5.01-17.88-5.01-27.56c0-10.04,1.67-19.45,5.01-28.23
				c3.34-8.78,8.22-16.53,14.63-23.26c6.41-6.72,14.23-12.01,23.44-15.87c9.21-3.85,19.51-5.78,30.89-5.78
				c11.74,0,22.17,1.93,31.3,5.78c9.12,3.86,16.94,9.15,23.44,15.87c6.5,6.72,11.47,14.47,14.9,23.26
				c3.43,8.79,5.15,18.19,5.15,28.23c0,9.68-1.72,18.87-5.15,27.56c-3.43,8.7-8.4,16.45-14.9,23.26
				c-6.51,6.81-14.32,12.19-23.44,16.13C1064.2,602.37,1053.85,604.34,1042.3,604.34z M1005.17,531.47c0,8,1.63,15.21,4.88,21.61
				c3.25,6.4,7.72,11.38,13.41,14.94c5.69,3.56,11.96,5.33,18.83,5.33c6.86,0,13.1-1.82,18.7-5.47c5.6-3.65,10.07-8.62,13.41-14.93
				c3.34-6.31,5.01-13.56,5.01-21.74c0-8-1.67-15.16-5.01-21.47c-3.35-6.31-7.82-11.29-13.41-14.94c-5.6-3.65-11.92-5.47-18.97-5.47
				c-6.87,0-13.1,1.82-18.7,5.47c-5.6,3.65-10.03,8.62-13.28,14.94S1005.17,523.29,1005.17,531.47z"/>
			<path class="st1" d="M1132.8,503.47c0-11.96,2.12-23.61,6.37-34.94c4.24-11.33,10.47-21.62,18.7-30.86
				c8.22-9.24,18.2-16.63,29.94-22.16c11.74-5.53,25.02-8.29,39.84-8.29c17.7,0,33.01,3.9,45.93,11.69
				c12.92,7.8,22.45,17.94,28.59,30.45l-28.45,19.85c-3.25-7.25-7.5-12.96-12.73-17.13c-5.24-4.17-10.89-7.16-16.94-8.97
				c-6.06-1.81-11.88-2.72-17.48-2.72c-9.4,0-17.57,1.9-24.53,5.71c-6.96,3.81-12.74,8.79-17.34,14.95
				c-4.61,6.16-8.09,13.05-10.43,20.66c-2.35,7.61-3.52,15.32-3.52,23.11c0,8.34,1.35,16.45,4.07,24.33
				c2.71,7.89,6.54,14.86,11.52,20.94c4.97,6.08,10.93,10.88,17.89,14.41c6.95,3.53,14.59,5.3,22.9,5.3
				c5.78,0,11.74-0.99,17.89-2.99c6.14-1.99,11.83-5.17,17.07-9.52c5.24-4.35,9.49-10.06,12.74-17.13l30.35,17.94
				c-3.98,9.61-10.26,17.77-18.83,24.47c-8.58,6.71-18.16,11.79-28.73,15.23c-10.57,3.45-21.09,5.17-31.57,5.17
				c-13.73,0-26.24-2.85-37.53-8.56c-11.29-5.71-21.1-13.32-29.4-22.84c-8.31-9.52-14.77-20.21-19.38-32.08
				C1135.1,527.63,1132.8,515.62,1132.8,503.47z"/>
			<path class="st1" d="M1458.79,601.62h-36.31v-78.78c0-10.9-2.13-19.02-6.37-24.38c-4.25-5.36-10.07-8.04-17.48-8.04
				c-4.33,0-8.94,1.24-13.82,3.72c-4.88,2.48-9.26,5.89-13.14,10.22c-3.89,4.34-6.82,9.34-8.81,15v82.26h-36.04V403.14h36.04v83.69
				c5.6-8.96,12.87-15.95,21.81-20.97c8.94-5.02,18.74-7.53,29.4-7.53c9.21,0,16.75,1.52,22.63,4.57
				c5.87,3.05,10.39,7.26,13.55,12.63c3.16,5.38,5.37,11.33,6.64,17.88c1.26,6.54,1.9,13.22,1.9,20.03V601.62z"/>
			<path class="st1" d="M1480.74,560.01c0-9.13,2.57-17.1,7.72-23.91c5.15-6.81,12.28-12.13,21.41-15.98
				c9.12-3.85,19.74-5.78,31.84-5.78c5.96,0,12.01,0.46,18.15,1.36c6.14,0.91,11.47,2.36,15.99,4.35v-7.85
				c0-8.72-2.62-15.48-7.86-20.29c-5.24-4.8-13.1-7.21-23.58-7.21c-7.95,0-15.44,1.36-22.49,4.08c-7.04,2.72-14.46,6.62-22.22,11.69
				l-11.38-23.65c9.21-6.34,18.74-11.01,28.59-14c9.84-2.99,20.19-4.49,31.03-4.49c20.23,0,35.99,4.96,47.29,14.88
				c11.29,9.92,16.94,24.26,16.94,43.02V561c0,3.76,0.68,6.44,2.03,8.04c1.36,1.61,3.57,2.59,6.64,2.95v29.64
				c-3.25,0.54-6.19,0.99-8.81,1.36c-2.62,0.36-4.84,0.45-6.64,0.27c-7.23,0-12.69-1.59-16.39-4.76c-3.71-3.17-5.92-7.11-6.64-11.83
				l-0.81-7.34c-6.32,7.98-14.09,14.14-23.3,18.49c-9.21,4.35-18.61,6.53-28.18,6.53c-9.4,0-17.84-1.97-25.34-5.91
				c-7.5-3.94-13.37-9.27-17.61-15.98C1482.86,575.73,1480.74,568.26,1480.74,560.01z M1569.08,566.83c1.99-1.77,3.61-3.8,4.88-6.1
				c1.26-2.3,1.9-4.24,1.9-5.84v-14.05c-4.33-1.77-9.04-3.14-14.09-4.11c-5.06-0.97-9.85-1.46-14.36-1.46
				c-9.4,0-17.12,1.99-23.17,5.96c-6.06,3.98-9.08,9.24-9.08,15.78c0,3.53,0.99,6.94,2.98,10.21c1.99,3.27,4.83,5.88,8.54,7.82
				c3.7,1.95,8.27,2.91,13.69,2.91c5.42,0,10.74-1.06,15.99-3.18C1561.58,572.67,1565.83,570.02,1569.08,566.83z"/>
			<path class="st1" d="M1729.77,594.55c-3.25,1.45-7,2.95-11.24,4.49c-4.25,1.54-8.85,2.81-13.82,3.81
				c-4.97,0.99-9.99,1.5-15.04,1.5c-6.87,0-13.1-1.17-18.7-3.5c-5.6-2.34-10.07-6.06-13.41-11.18c-3.35-5.11-5.01-11.81-5.01-20.06
				v-81.35h-18.43v-27.73h18.43v-46.22h36.58v46.22h29.81v27.73h-29.81v68.97c0.18,4.83,1.53,8.37,4.07,10.6
				c2.53,2.23,5.78,3.35,9.75,3.35c3.61,0,7.22-0.68,10.84-2.04c3.61-1.36,6.59-2.58,8.94-3.67L1729.77,594.55z"/>
			<path class="st1" d="M1801.04,604.34c-12.11,0-23.71-2-34.82-5.98c-11.11-3.98-20.55-9.88-28.32-17.67l13.28-23.65
				c8.31,6.89,16.53,11.96,24.66,15.23c8.13,3.26,16.08,4.89,23.85,4.89c7.04,0,12.69-1.22,16.94-3.67
				c4.24-2.45,6.37-6.12,6.37-11.01c0-3.58-1.18-6.3-3.52-8.18c-2.35-1.88-5.74-3.49-10.16-4.83c-4.43-1.34-9.8-2.91-16.12-4.69
				c-10.48-3.22-19.2-6.49-26.15-9.8c-6.96-3.31-12.24-7.43-15.85-12.35c-3.61-4.92-5.42-11.23-5.42-18.92
				c0-9.3,2.39-17.31,7.18-24.02c4.78-6.71,11.47-11.95,20.05-15.7c8.58-3.76,18.65-5.64,30.22-5.64c10.11,0,19.69,1.59,28.72,4.76
				c9.03,3.17,17.25,8.29,24.66,15.36l-14.91,23.38c-7.04-5.8-13.82-10.01-20.32-12.64c-6.5-2.63-13.1-3.94-19.78-3.94
				c-3.79,0-7.36,0.45-10.7,1.34c-3.35,0.89-6.06,2.37-8.13,4.42c-2.08,2.05-3.12,4.95-3.12,8.7c0,3.21,0.95,5.8,2.85,7.76
				c1.9,1.96,4.78,3.65,8.67,5.08c3.88,1.43,8.63,3.03,14.23,4.82c11.38,3.21,20.96,6.47,28.73,9.77
				c7.76,3.3,13.69,7.45,17.75,12.44c4.06,5,6.1,11.77,6.1,20.34c0,13.92-5.15,24.8-15.45,32.65
				C1832.2,600.42,1818.38,604.34,1801.04,604.34z"/>
		</g>
	</g>
</g>
</svg>
