<svg width="118" height="134" viewBox="0 0 118 134" fill="none" xmlns="http://www.w3.org/2000/svg">
<path d="M51.6702 34.0603C43.2693 38.8775 34.8216 43.6075 26.3873 48.3443C25.9455 48.5922 25.7916 48.8602 25.7916 49.3627C25.8117 60.7122 25.8251 72.055 25.7648 83.4045C25.7581 84.2755 26.0192 84.5301 26.7086 84.8718C35.0158 89.0056 43.3095 93.1729 51.5832 97.367C52.6609 97.9164 53.7252 97.6886 54.8833 97.7489V33.531C53.7252 33.598 52.7278 33.4506 51.6702 34.0603ZM52.3931 94.2985C52.3931 94.3722 52.3797 94.4459 52.3664 94.5798C52.1722 94.4928 51.9982 94.4325 51.8375 94.3521C44.2667 90.5466 36.6892 86.7344 29.1118 82.9422C28.7101 82.7412 28.5762 82.5336 28.5762 82.078C28.5896 71.6664 28.5896 61.2616 28.5829 50.85C28.5829 50.5017 28.6298 50.2739 28.9846 50.0729C36.6625 45.7649 44.3203 41.4368 51.9915 37.1154C52.1053 37.0484 52.2258 37.0015 52.3931 36.9211V80.7983C52.1923 80.7179 52.0383 80.6643 51.8978 80.5906C49.8494 79.5655 47.8011 78.5271 45.7461 77.5154C45.4181 77.3546 45.2708 77.167 45.224 76.7918C45.0231 75.2575 43.758 74.0315 42.2184 73.8439C40.7524 73.6563 39.2731 74.5139 38.6506 75.9141C38.0213 77.3278 38.4029 78.9156 39.6212 79.9608C40.7658 80.939 42.4594 81.0462 43.7178 80.1618C44.0927 79.8938 44.3604 79.9206 44.742 80.1149C47.1384 81.341 49.5482 82.547 51.958 83.7462C52.2258 83.8802 52.4199 83.9941 52.4132 84.3693C52.3864 87.679 52.3931 90.9887 52.3931 94.2985ZM38.0012 101.253C39.1727 102.425 39.3534 104.261 38.4297 105.621C37.4791 107.015 35.6919 107.531 34.1723 106.861C32.6461 106.191 31.7826 104.502 32.211 102.888C32.3248 102.452 32.1909 102.298 31.8563 102.09C26.6015 98.9414 21.3535 95.7791 16.0988 92.6168C15.9516 92.5297 15.811 92.4359 15.7173 92.3756C15.7507 91.9937 15.8043 91.6587 15.8043 91.3237C15.8043 74.9024 15.811 58.4879 15.7842 42.0666C15.7842 41.3363 16.0921 41.0013 16.6343 40.6998C19.1646 39.2794 21.6882 37.8524 24.2185 36.432C34.7681 30.4893 45.311 24.5465 55.8606 18.6105C56.9918 17.974 58.1231 17.3442 59.1807 16.7479C60.5597 17.5854 61.8784 18.3827 63.2038 19.1866C63.7794 19.535 64.3551 19.87 64.9107 20.2318C65.0312 20.3055 65.1517 20.4797 65.1517 20.6137C65.1651 23.6152 65.1584 26.6168 65.1584 29.6719H63.592V29.0622C63.592 26.6168 63.5853 24.1646 63.5987 21.7192C63.5987 21.344 63.4849 21.1363 63.1636 20.9487C61.9587 20.2519 60.7672 19.5283 59.5824 18.7914C59.2745 18.5971 59.0402 18.577 58.6988 18.7646C45.0432 26.4694 31.3877 34.1608 17.7254 41.8455C17.4108 42.0264 17.3238 42.2207 17.3238 42.5691C17.3305 58.7559 17.3305 74.9493 17.3439 91.1361C17.3439 91.3505 17.4845 91.6654 17.6585 91.7659C22.7726 94.8679 27.8935 97.9432 33.0076 101.032C33.0745 101.072 33.1482 101.099 33.2151 101.126C34.9689 99.8995 36.7093 99.9531 38.0012 101.253ZM63.1368 33.4104C64.2145 33.4104 65.232 33.4104 66.2428 33.4104C66.3365 33.4104 66.4436 33.4104 66.5173 33.4573C69.3287 35.4203 72.1334 37.4035 74.9516 39.3598C77.3212 41.008 79.6975 42.6294 82.0872 44.2507C82.3215 44.4115 82.6361 44.5053 82.9173 44.512C84.8451 44.5589 86.3847 46.0932 86.378 48.0026C86.3713 49.8585 84.8652 51.3927 82.9976 51.4463C81.0965 51.4999 79.5034 49.9992 79.4432 48.0696C79.4298 47.6542 79.5369 47.2388 79.5904 46.7766C75.2996 43.8286 70.9754 40.8606 66.5708 37.8323V38.5492C66.5708 45.6108 66.5775 52.6724 66.5574 59.7273C66.5574 60.2097 66.7181 60.471 67.1063 60.739C72.4681 64.4038 77.8098 68.0887 83.1717 71.7535C83.6001 72.0483 83.8143 72.3096 83.8009 72.9126C83.7406 75.76 83.7741 78.6142 83.7741 81.4683C83.7741 83.2236 83.7674 84.9857 83.7808 86.7477C83.7808 87.1028 83.8344 87.4512 83.8745 87.8733C82.4153 88.7041 80.889 89.5751 79.3695 90.4394C75.467 92.657 71.5711 94.8746 67.6753 97.1057C67.4745 97.2263 67.2803 97.5077 67.2469 97.7422C67.0327 99.263 65.8479 100.523 64.3618 100.771C62.8289 101.012 61.2893 100.188 60.6467 98.7673C60.0175 97.3804 60.3789 95.7456 61.5303 94.7473C62.7285 93.7089 64.4154 93.5816 65.714 94.4861C66.0353 94.7071 66.2428 94.7138 66.5708 94.5263C71.2231 91.8597 75.8887 89.2066 80.561 86.5669C80.889 86.3793 80.9961 86.1716 80.9961 85.8031C80.9828 81.7698 80.9828 77.7298 80.9961 73.6898C80.9961 73.3414 80.8823 73.1471 80.6012 72.9528C75.0854 69.1741 69.583 65.382 64.0673 61.61C63.8129 61.4358 63.4916 61.3554 63.1435 61.208V33.4104H63.1368ZM100.388 41.6378C100.375 58.4946 100.382 75.3513 100.382 92.2148V92.6369C99.2437 93.2734 98.1928 93.8429 97.1552 94.4258C85.3271 101.085 73.499 107.752 61.6709 114.418C60.1045 115.302 58.5381 116.173 56.9851 117.064C56.5701 117.299 56.222 117.332 55.7936 117.058C54.736 116.381 53.6449 115.751 52.6207 115.135V102.901H54.2005V103.584C54.2005 106.968 54.2072 110.358 54.1938 113.748C54.1938 114.163 54.3076 114.411 54.6824 114.606C55.2715 114.914 55.8338 115.53 56.4162 115.537C56.9985 115.544 57.5876 114.967 58.17 114.639C69.9512 108.006 81.7258 101.373 93.507 94.7407C95.1203 93.8295 96.7268 92.9049 98.3534 92.0205C98.7283 91.8128 98.8421 91.585 98.8421 91.1696C98.8354 74.9225 98.8354 58.6755 98.8354 42.4284C98.8354 42.1068 98.8086 41.8656 98.4806 41.6713C93.5338 38.71 88.5937 35.7352 83.6536 32.7605C83.5867 32.7203 83.5197 32.6935 83.4059 32.6399C82.8169 33.4439 82.0739 34.0335 81.0631 34.2211C79.2356 34.5695 77.3814 33.3233 77.0334 31.5009C76.6786 29.625 77.8768 27.8093 79.7042 27.4341C81.8195 27.0054 83.8076 28.5396 83.8678 30.6702C83.8745 31.0386 84.0352 31.2061 84.3163 31.3736C89.5041 34.4891 94.6852 37.6179 99.8796 40.7333C100.234 40.9544 100.388 41.1956 100.388 41.6378ZM114.164 30.6836L62.8423 1.0301C60.466 -0.343366 57.5407 -0.343366 55.1644 1.0301L3.8423 30.6836C1.46596 32.057 0 34.5963 0 37.3432V96.6568C0 99.4037 1.46596 101.943 3.8423 103.316L55.1577 132.97C57.534 134.343 60.4593 134.343 62.8356 132.97L114.158 103.316C116.534 101.943 118 99.4037 118 96.6568V37.3432C118 34.5963 116.541 32.057 114.164 30.6836ZM111.654 93.461C111.654 95.9131 110.349 98.1777 108.227 99.4037L62.4273 125.868C60.3053 127.094 57.6947 127.094 55.5727 125.868L9.77309 99.4037C7.65112 98.1777 6.34581 95.9131 6.34581 93.461V40.5323C6.34581 38.0802 7.65112 35.8156 9.77309 34.5896L55.5727 8.12522C57.6947 6.89915 60.3053 6.89915 62.4273 8.12522L108.227 34.5896C110.349 35.8156 111.654 38.0802 111.654 40.5323V93.461ZM51.6702 34.0603C43.2693 38.8775 34.8216 43.6075 26.3873 48.3443C25.9455 48.5922 25.7916 48.8602 25.7916 49.3627C25.8117 60.7122 25.8251 72.055 25.7648 83.4045C25.7581 84.2755 26.0192 84.5301 26.7086 84.8718C35.0158 89.0056 43.3095 93.1729 51.5832 97.367C52.6609 97.9164 53.7252 97.6886 54.8833 97.7489V33.531C53.7252 33.598 52.7278 33.4506 51.6702 34.0603ZM52.3931 94.2985C52.3931 94.3722 52.3797 94.4459 52.3664 94.5798C52.1722 94.4928 51.9982 94.4325 51.8375 94.3521C44.2667 90.5466 36.6892 86.7344 29.1118 82.9422C28.7101 82.7412 28.5762 82.5336 28.5762 82.078C28.5896 71.6664 28.5896 61.2616 28.5829 50.85C28.5829 50.5017 28.6298 50.2739 28.9846 50.0729C36.6625 45.7649 44.3203 41.4368 51.9915 37.1154C52.1053 37.0484 52.2258 37.0015 52.3931 36.9211V80.7983C52.1923 80.7179 52.0383 80.6643 51.8978 80.5906C49.8494 79.5655 47.8011 78.5271 45.7461 77.5154C45.4181 77.3546 45.2708 77.167 45.224 76.7918C45.0231 75.2575 43.758 74.0315 42.2184 73.8439C40.7524 73.6563 39.2731 74.5139 38.6506 75.9141C38.0213 77.3278 38.4029 78.9156 39.6212 79.9608C40.7658 80.939 42.4594 81.0462 43.7178 80.1618C44.0927 79.8938 44.3604 79.9206 44.742 80.1149C47.1384 81.341 49.5482 82.547 51.958 83.7462C52.2258 83.8802 52.4199 83.9941 52.4132 84.3693C52.3864 87.679 52.3931 90.9887 52.3931 94.2985ZM38.0012 101.253C39.1727 102.425 39.3534 104.261 38.4297 105.621C37.4791 107.015 35.6919 107.531 34.1723 106.861C32.6461 106.191 31.7826 104.502 32.211 102.888C32.3248 102.452 32.1909 102.298 31.8563 102.09C26.6015 98.9414 21.3535 95.7791 16.0988 92.6168C15.9516 92.5297 15.811 92.4359 15.7173 92.3756C15.7507 91.9937 15.8043 91.6587 15.8043 91.3237C15.8043 74.9024 15.811 58.4879 15.7842 42.0666C15.7842 41.3363 16.0921 41.0013 16.6343 40.6998C19.1646 39.2794 21.6882 37.8524 24.2185 36.432C34.7681 30.4893 45.311 24.5465 55.8606 18.6105C56.9918 17.974 58.1231 17.3442 59.1807 16.7479C60.5597 17.5854 61.8784 18.3827 63.2038 19.1866C63.7794 19.535 64.3551 19.87 64.9107 20.2318C65.0312 20.3055 65.1517 20.4797 65.1517 20.6137C65.1651 23.6152 65.1584 26.6168 65.1584 29.6719H63.592V29.0622C63.592 26.6168 63.5853 24.1646 63.5987 21.7192C63.5987 21.344 63.4849 21.1363 63.1636 20.9487C61.9587 20.2519 60.7672 19.5283 59.5824 18.7914C59.2745 18.5971 59.0402 18.577 58.6988 18.7646C45.0432 26.4694 31.3877 34.1608 17.7254 41.8455C17.4108 42.0264 17.3238 42.2207 17.3238 42.5691C17.3305 58.7559 17.3305 74.9493 17.3439 91.1361C17.3439 91.3505 17.4845 91.6654 17.6585 91.7659C22.7726 94.8679 27.8935 97.9432 33.0076 101.032C33.0745 101.072 33.1482 101.099 33.2151 101.126C34.9689 99.8995 36.7093 99.9531 38.0012 101.253ZM63.1368 33.4104C64.2145 33.4104 65.232 33.4104 66.2428 33.4104C66.3365 33.4104 66.4436 33.4104 66.5173 33.4573C69.3287 35.4203 72.1334 37.4035 74.9516 39.3598C77.3212 41.008 79.6975 42.6294 82.0872 44.2507C82.3215 44.4115 82.6361 44.5053 82.9173 44.512C84.8451 44.5589 86.3847 46.0932 86.378 48.0026C86.3713 49.8585 84.8652 51.3927 82.9976 51.4463C81.0965 51.4999 79.5034 49.9992 79.4432 48.0696C79.4298 47.6542 79.5369 47.2388 79.5904 46.7766C75.2996 43.8286 70.9754 40.8606 66.5708 37.8323V38.5492C66.5708 45.6108 66.5775 52.6724 66.5574 59.7273C66.5574 60.2097 66.7181 60.471 67.1063 60.739C72.4681 64.4038 77.8098 68.0887 83.1717 71.7535C83.6001 72.0483 83.8143 72.3096 83.8009 72.9126C83.7406 75.76 83.7741 78.6142 83.7741 81.4683C83.7741 83.2236 83.7674 84.9857 83.7808 86.7477C83.7808 87.1028 83.8344 87.4512 83.8745 87.8733C82.4153 88.7041 80.889 89.5751 79.3695 90.4394C75.467 92.657 71.5711 94.8746 67.6753 97.1057C67.4745 97.2263 67.2803 97.5077 67.2469 97.7422C67.0327 99.263 65.8479 100.523 64.3618 100.771C62.8289 101.012 61.2893 100.188 60.6467 98.7673C60.0175 97.3804 60.3789 95.7456 61.5303 94.7473C62.7285 93.7089 64.4154 93.5816 65.714 94.4861C66.0353 94.7071 66.2428 94.7138 66.5708 94.5263C71.2231 91.8597 75.8887 89.2066 80.561 86.5669C80.889 86.3793 80.9961 86.1716 80.9961 85.8031C80.9828 81.7698 80.9828 77.7298 80.9961 73.6898C80.9961 73.3414 80.8823 73.1471 80.6012 72.9528C75.0854 69.1741 69.583 65.382 64.0673 61.61C63.8129 61.4358 63.4916 61.3554 63.1435 61.208V33.4104H63.1368ZM100.388 41.6378C100.375 58.4946 100.382 75.3513 100.382 92.2148V92.6369C99.2437 93.2734 98.1928 93.8429 97.1552 94.4258C85.3271 101.085 73.499 107.752 61.6709 114.418C60.1045 115.302 58.5381 116.173 56.9851 117.064C56.5701 117.299 56.222 117.332 55.7936 117.058C54.736 116.381 53.6449 115.751 52.6207 115.135V102.901H54.2005V103.584C54.2005 106.968 54.2072 110.358 54.1938 113.748C54.1938 114.163 54.3076 114.411 54.6824 114.606C55.2715 114.914 55.8338 115.53 56.4162 115.537C56.9985 115.544 57.5876 114.967 58.17 114.639C69.9512 108.006 81.7258 101.373 93.507 94.7407C95.1203 93.8295 96.7268 92.9049 98.3534 92.0205C98.7283 91.8128 98.8421 91.585 98.8421 91.1696C98.8354 74.9225 98.8354 58.6755 98.8354 42.4284C98.8354 42.1068 98.8086 41.8656 98.4806 41.6713C93.5338 38.71 88.5937 35.7352 83.6536 32.7605C83.5867 32.7203 83.5197 32.6935 83.4059 32.6399C82.8169 33.4439 82.0739 34.0335 81.0631 34.2211C79.2356 34.5695 77.3814 33.3233 77.0334 31.5009C76.6786 29.625 77.8768 27.8093 79.7042 27.4341C81.8195 27.0054 83.8076 28.5396 83.8678 30.6702C83.8745 31.0386 84.0352 31.2061 84.3163 31.3736C89.5041 34.4891 94.6852 37.6179 99.8796 40.7333C100.234 40.9544 100.388 41.1956 100.388 41.6378ZM51.6702 34.0603C43.2693 38.8775 34.8216 43.6075 26.3873 48.3443C25.9455 48.5922 25.7916 48.8602 25.7916 49.3627C25.8117 60.7122 25.8251 72.055 25.7648 83.4045C25.7581 84.2755 26.0192 84.5301 26.7086 84.8718C35.0158 89.0056 43.3095 93.1729 51.5832 97.367C52.6609 97.9164 53.7252 97.6886 54.8833 97.7489V33.531C53.7252 33.598 52.7278 33.4506 51.6702 34.0603ZM52.3931 94.2985C52.3931 94.3722 52.3797 94.4459 52.3664 94.5798C52.1722 94.4928 51.9982 94.4325 51.8375 94.3521C44.2667 90.5466 36.6892 86.7344 29.1118 82.9422C28.7101 82.7412 28.5762 82.5336 28.5762 82.078C28.5896 71.6664 28.5896 61.2616 28.5829 50.85C28.5829 50.5017 28.6298 50.2739 28.9846 50.0729C36.6625 45.7649 44.3203 41.4368 51.9915 37.1154C52.1053 37.0484 52.2258 37.0015 52.3931 36.9211V80.7983C52.1923 80.7179 52.0383 80.6643 51.8978 80.5906C49.8494 79.5655 47.8011 78.5271 45.7461 77.5154C45.4181 77.3546 45.2708 77.167 45.224 76.7918C45.0231 75.2575 43.758 74.0315 42.2184 73.8439C40.7524 73.6563 39.2731 74.5139 38.6506 75.9141C38.0213 77.3278 38.4029 78.9156 39.6212 79.9608C40.7658 80.939 42.4594 81.0462 43.7178 80.1618C44.0927 79.8938 44.3604 79.9206 44.742 80.1149C47.1384 81.341 49.5482 82.547 51.958 83.7462C52.2258 83.8802 52.4199 83.9941 52.4132 84.3693C52.3864 87.679 52.3931 90.9887 52.3931 94.2985ZM79.4499 48.0696C79.4365 47.6542 79.5436 47.2388 79.5971 46.7766C75.3063 43.8286 70.9821 40.8606 66.5775 37.8323V38.5492C66.5775 45.6108 66.5842 52.6724 66.5641 59.7273C66.5641 60.2097 66.7248 60.471 67.113 60.739C72.4748 64.4038 77.8165 68.0887 83.1784 71.7535C83.6068 72.0483 83.821 72.3096 83.8076 72.9126C83.7473 75.76 83.7808 78.6142 83.7808 81.4683C83.7808 83.2236 83.7741 84.9857 83.7875 86.7477C83.7875 87.1028 83.841 87.4512 83.8812 87.8733C82.4219 88.7041 80.8957 89.5751 79.3762 90.4394C75.4737 92.657 71.5778 94.8746 67.682 97.1057C67.4812 97.2263 67.287 97.5077 67.2536 97.7422C67.0394 99.263 65.8546 100.523 64.3685 100.771C62.8356 101.012 61.296 100.188 60.6534 98.7673C60.0242 97.3804 60.3856 95.7456 61.537 94.7473C62.7352 93.7089 64.4221 93.5816 65.7207 94.4861C66.042 94.7071 66.2495 94.7138 66.5775 94.5263C71.2297 91.8597 75.8954 89.2066 80.5677 86.5669C80.8957 86.3793 81.0028 86.1716 81.0028 85.8031C80.9894 81.7698 80.9894 77.7298 81.0028 73.6898C81.0028 73.3414 80.889 73.1471 80.6079 72.9528C75.0921 69.1741 69.5897 65.382 64.074 61.61C63.8196 61.4358 63.4983 61.3554 63.1502 61.208V33.4104C64.2279 33.4104 65.2454 33.4104 66.2562 33.4104C66.3499 33.4104 66.457 33.4104 66.5306 33.4573C69.3421 35.4203 72.1468 37.4035 74.9649 39.3598C77.3346 41.008 79.7109 42.6294 82.1006 44.2507C82.3349 44.4115 82.6495 44.5053 82.9307 44.512C84.8585 44.5589 86.3981 46.0932 86.3914 48.0026C86.3847 49.8585 84.8786 51.3927 83.011 51.4463C81.1032 51.4999 79.5034 49.9992 79.4499 48.0696ZM100.388 41.6378C100.375 58.4946 100.382 75.3513 100.382 92.2148V92.6369C99.2437 93.2734 98.1928 93.8429 97.1552 94.4258C85.3271 101.085 73.499 107.752 61.6709 114.418C60.1045 115.302 58.5381 116.173 56.9851 117.064C56.5701 117.299 56.222 117.332 55.7936 117.058C54.736 116.381 53.6449 115.751 52.6207 115.135V102.901H54.2005V103.584C54.2005 106.968 54.2072 110.358 54.1938 113.748C54.1938 114.163 54.3076 114.411 54.6824 114.606C55.2715 114.914 55.8338 115.53 56.4162 115.537C56.9985 115.544 57.5876 114.967 58.17 114.639C69.9512 108.006 81.7258 101.373 93.507 94.7407C95.1203 93.8295 96.7268 92.9049 98.3534 92.0205C98.7283 91.8128 98.8421 91.585 98.8421 91.1696C98.8354 74.9225 98.8354 58.6755 98.8354 42.4284C98.8354 42.1068 98.8086 41.8656 98.4806 41.6713C93.5338 38.71 88.5937 35.7352 83.6536 32.7605C83.5867 32.7203 83.5197 32.6935 83.4059 32.6399C82.8169 33.4439 82.0739 34.0335 81.0631 34.2211C79.2356 34.5695 77.3814 33.3233 77.0334 31.5009C76.6786 29.625 77.8768 27.8093 79.7042 27.4341C81.8195 27.0054 83.8076 28.5396 83.8678 30.6702C83.8745 31.0386 84.0352 31.2061 84.3163 31.3736C89.5041 34.4891 94.6852 37.6179 99.8796 40.7333C100.234 40.9544 100.388 41.1956 100.388 41.6378ZM65.1584 29.6652H63.592V29.0555C63.592 26.6101 63.5853 24.1579 63.5987 21.7125C63.5987 21.3373 63.4849 21.1296 63.1636 20.942C61.9587 20.2452 60.7672 19.5216 59.5824 18.7847C59.2745 18.5904 59.0402 18.5703 58.6988 18.7579C45.0432 26.4627 31.3877 34.1541 17.7254 41.8388C17.4108 42.0197 17.3238 42.214 17.3238 42.5624C17.3305 58.7492 17.3305 74.9426 17.3439 91.1294C17.3439 91.3438 17.4845 91.6587 17.6585 91.7592C22.7726 94.8613 27.8935 97.9365 33.0076 101.025C33.0745 101.065 33.1482 101.092 33.2151 101.119C34.9756 99.9062 36.716 99.9598 38.0079 101.26C39.1794 102.432 39.3601 104.268 38.4364 105.628C37.4858 107.021 35.6985 107.537 34.179 106.867C32.6528 106.197 31.7893 104.509 32.2177 102.894C32.3315 102.459 32.1976 102.305 31.8629 102.097C26.6082 98.9481 21.3602 95.7858 16.1055 92.6235C15.9582 92.5364 15.8177 92.4426 15.724 92.3823C15.7574 92.0004 15.811 91.6654 15.811 91.3304C15.811 74.9091 15.8177 58.4946 15.7909 42.0733C15.7909 41.343 16.0988 41.008 16.641 40.7065C19.1713 39.2861 21.6949 37.8591 24.2252 36.4387C34.7748 30.496 45.3177 24.5532 55.8673 18.6172C56.9985 17.9807 58.1298 17.3509 59.1874 16.7546C60.5664 17.5921 61.8851 18.3894 63.2105 19.1933C63.7861 19.5417 64.3618 19.8767 64.9174 20.2385C65.0379 20.3122 65.1584 20.4864 65.1584 20.6204C65.1584 23.6085 65.1584 26.6101 65.1584 29.6652Z" fill="white"/>
</svg>
